<svg xmlns="http://www.w3.org/2000/svg" viewBox="0 0 150 150"><defs><style>.a{fill:none;}.b{fill:#674a06;}</style></defs><path class="a" d="M0,0H150V150H0Z"/><g transform="translate(12.5 31.25)"><path class="b" d="M45.75,13.75C31.125,13.75,2,21.062,2,35.625V46.562H89.5V35.625C89.5,21.062,60.375,13.75,45.75,13.75ZM16.625,34.062c5.25-3.625,17.937-7.812,29.125-7.812s23.875,4.187,29.125,7.812Z" transform="translate(-2 40.938)"/><path class="b" d="M27.375,48.75A21.875,21.875,0,1,0,5.5,26.875,21.9,21.9,0,0,0,27.375,48.75Zm0-31.25A9.375,9.375,0,1,1,18,26.875,9.362,9.362,0,0,1,27.375,17.5Z" transform="translate(16.375 -5)"/><path class="b" d="M16.04,13.81c7.25,5.25,12.25,12.25,12.25,21.5V46.247h25V35.31C53.29,22.685,31.415,15.5,16.04,13.81Z" transform="translate(71.71 41.252)"/><path class="b" d="M22.875,48.75a21.875,21.875,0,1,0,0-43.75A21.535,21.535,0,0,0,13.5,7.187a34,34,0,0,1,6.25,19.688A34,34,0,0,1,13.5,46.562,21.535,21.535,0,0,0,22.875,48.75Z" transform="translate(58.375 -5)"/></g></svg>